<svg xmlns="http://www.w3.org/2000/svg" xmlns:xlink="http://www.w3.org/1999/xlink" width="70.82" height="70.82" viewBox="0 0 70.82 70.82"><defs><clipPath id="a"><path d="M0-70.82H70.82V0H0Z" fill="none"/></clipPath></defs><g transform="translate(0 70.82)"><g clip-path="url(#a)"><g transform="translate(67.535 -50.33)"><path d="M0,0-17.2-17.2A35.35,35.35,0,0,1-7.086-10.118,35.348,35.348,0,0,1,0,0" fill="#fdef86"/></g><g transform="translate(70.296 -41.499)"><path d="M0,0-28.8-28.8a35.659,35.659,0,0,1,3.954.919L-.922-3.956A34.713,34.713,0,0,1,0,0" fill="#fdef86"/></g><g transform="translate(70.815 -34.908)"><path d="M0,0-35.908-35.906c1.043-.019,2.088.012,3.129.09L-.091-3.128C-.015-2.087.017-1.041,0,0" fill="#fdef86"/></g><g transform="translate(70.301 -29.353)"><path d="M0,0-40.948-40.947c.886-.157,1.782-.276,2.677-.361L.358-2.676C.275-1.781.155-.886,0,0" fill="#fdef86"/></g><g transform="translate(69.102 -24.483)"><path d="M0,0-44.618-44.618q1.17-.379,2.362-.672L.671-2.363C.476-1.566.252-.781,0,0" fill="#fdef86"/></g><g transform="translate(22.254 -68.292)"><path d="M0,0,17.336,17.336a16.048,16.048,0,0,0-3.573-.538L-2.11.924C-1.417.588-.715.282,0,0" fill="#fdef86"/></g><g transform="translate(67.368 -20.145)"><path d="M0,0-15.873-15.872a16.107,16.107,0,0,0-.539-3.573L.924-2.11C.642-1.395.336-.692,0,0" fill="#fdef86"/></g><g transform="translate(18.143 -66.335)"><path d="M0,0,14.989,14.988a15.978,15.978,0,0,0-2.477.558L-1.894,1.141Q-.964.535,0,0" fill="#fdef86"/></g><g transform="translate(65.194 -16.248)"><path d="M0,0-14.4-14.406a16.038,16.038,0,0,0,.556-2.476L1.142-1.895Q.6-.93,0,0" fill="#fdef86"/></g><g transform="translate(14.452 -63.958)"><path d="M0,0,14.017,14.019a15.466,15.466,0,0,0-1.933,1.1L-1.7,1.336Q-.867.639,0,0" fill="#fdef86"/></g><g transform="translate(62.622 -12.753)"><path d="M0,0-13.782-13.783a15.594,15.594,0,0,0,1.1-1.934L1.336-1.7Q.7-.832,0,0" fill="#fdef86"/></g><g transform="translate(24.813 -47.522)"><path d="M0,0C-.27.231-.529.476-.785.73s-.5.519-.734.787L-15.188-12.152c.243-.264.491-.52.746-.774s.509-.5.772-.745Z" fill="#fdef86"/></g><g transform="translate(60.449 -10.372)"><path d="M0,0C-.255.256-.511.5-.773.747l-13.67-13.671c.267-.231.532-.478.787-.733s.5-.516.729-.784L.744-.771C.5-.508.252-.252,0,0" fill="#fdef86"/></g><g transform="translate(21.979 -44.288)"><path d="M0,0A15.892,15.892,0,0,0-1.1,1.937L-15.115-12.081q.638-.868,1.334-1.7Z" fill="#fdef86"/></g><g transform="translate(58.068 -8.197)"><path d="M0,0Q-.831.7-1.7,1.334L-15.717-12.685a16.027,16.027,0,0,0,1.937-1.1Z" fill="#fdef86"/></g><g transform="translate(20.029 -40.169)"><path d="M0,0A16.312,16.312,0,0,0-.556,2.479L-15.544-12.51q.537-.963,1.142-1.893Z" fill="#fdef86"/></g><g transform="translate(54.571 -5.626)"><path d="M0,0Q-.927.6-1.894,1.141l-14.988-14.99A15.965,15.965,0,0,0-14.4-14.4Z" fill="#fdef86"/></g><g transform="translate(19.328 -34.798)"><path d="M0,0A16.145,16.145,0,0,0,.537,3.571L-16.8-13.768q.423-1.07.925-2.108Z" fill="#fdef86"/></g><g transform="translate(50.674 -3.45)"><path d="M0,0Q-1.041.5-2.108.924L-19.447-16.415a16.079,16.079,0,0,0,3.57.538Z" fill="#fdef86"/></g><g transform="translate(46.337 -1.72)"><path d="M0,0C-.78.253-1.569.479-2.359.675L-45.292-42.257c.2-.792.422-1.581.674-2.361Z" fill="#fdef86"/></g><g transform="translate(41.471 -0.519)"><path d="M0,0C-.89.153-1.781.275-2.677.36L-41.312-38.275c.084-.9.207-1.788.359-2.676Z" fill="#fdef86"/></g><g transform="translate(35.91 -0.004)"><path d="M0,0C-1.038.016-2.082-.013-3.124-.09L-35.815-32.782c-.078-1.041-.107-2.086-.091-3.124Z" fill="#fdef86"/></g><g transform="translate(29.324 -0.522)"><path d="M0,0A35.383,35.383,0,0,1-3.954-.919L-27.884-24.85A35.4,35.4,0,0,1-28.8-28.8Z" fill="#fdef86"/></g><g transform="translate(20.498 -3.28)"><path d="M0,0A35.3,35.3,0,0,1-10.128-7.09a35.3,35.3,0,0,1-7.09-10.128Z" fill="#fdef86"/></g></g></g></svg>