<svg xmlns="http://www.w3.org/2000/svg" xmlns:xlink="http://www.w3.org/1999/xlink" width="39.734" height="76.632" viewBox="0 0 39.734 76.632"><defs><clipPath id="a"><path d="M0-76.632H39.734V0H0Z" fill="none"/></clipPath></defs><g transform="translate(0 76.632)" clip-path="url(#a)"><g transform="translate(39.048 -36.898)"><path d="M0,0A.671.671,0,0,1-.658-.686a.672.672,0,0,1,.684-.66.673.673,0,0,1,.66.686A.674.674,0,0,1,0,0" fill="#88ffdb"/></g><g transform="translate(36.413 -39.641)"><path d="M0,0A.672.672,0,0,1-.66-.686a.674.674,0,0,1,.686-.658.674.674,0,0,1,.659.685A.672.672,0,0,1,0,0" fill="#88ffdb"/></g><g transform="translate(36.359 -36.952)"><path d="M0,0A.672.672,0,0,1-.659-.687a.673.673,0,0,1,.685-.659.675.675,0,0,1,.659.687A.673.673,0,0,1,0,0" fill="#88ffdb"/></g><g transform="translate(36.307 -34.262)"><path d="M0,0A.674.674,0,0,1-.66-.687a.674.674,0,0,1,.686-.659.675.675,0,0,1,.659.687A.674.674,0,0,1,0,0" fill="#88ffdb"/></g><g transform="translate(33.776 -42.383)"><path d="M0,0A.671.671,0,0,1-.658-.685a.672.672,0,0,1,.685-.659.672.672,0,0,1,.659.686A.67.67,0,0,1,0,0" fill="#88ffdb"/></g><g transform="translate(33.723 -39.694)"><path d="M0,0A.672.672,0,0,1-.659-.686a.673.673,0,0,1,.685-.658.673.673,0,0,1,.66.685A.672.672,0,0,1,0,0" fill="#88ffdb"/></g><g transform="translate(33.67 -37.005)"><path d="M0,0A.67.67,0,0,1-.658-.686a.672.672,0,0,1,.684-.659.673.673,0,0,1,.66.686A.673.673,0,0,1,0,0" fill="#88ffdb"/></g><g transform="translate(33.617 -34.315)"><path d="M0,0A.671.671,0,0,1-.659-.686a.672.672,0,0,1,.685-.659.674.674,0,0,1,.66.686A.673.673,0,0,1,0,0" fill="#88ffdb"/></g><g transform="translate(33.563 -31.628)"><path d="M0,0A.671.671,0,0,1-.659-.684a.673.673,0,0,1,.686-.659.673.673,0,0,1,.659.686A.67.67,0,0,1,0,0" fill="#88ffdb"/></g><g transform="translate(31.141 -45.125)"><path d="M0,0A.672.672,0,0,1-.659-.685a.672.672,0,0,1,.686-.657.671.671,0,0,1,.659.684A.672.672,0,0,1,0,0" fill="#88ffdb"/></g><g transform="translate(31.087 -42.436)"><path d="M0,0A.672.672,0,0,1-.659-.685a.672.672,0,0,1,.686-.659.671.671,0,0,1,.659.685A.673.673,0,0,1,0,0" fill="#88ffdb"/></g><g transform="translate(31.035 -39.747)"><path d="M0,0A.673.673,0,0,1-.66-.686a.673.673,0,0,1,.686-.657.672.672,0,0,1,.66.683A.673.673,0,0,1,0,0" fill="#88ffdb"/></g><g transform="translate(30.981 -37.058)"><path d="M0,0A.672.672,0,0,1-.659-.686a.672.672,0,0,1,.685-.659.672.672,0,0,1,.66.685A.674.674,0,0,1,0,0" fill="#88ffdb"/></g><g transform="translate(30.929 -34.369)"><path d="M0,0A.673.673,0,0,1-.66-.686a.673.673,0,0,1,.686-.659.674.674,0,0,1,.66.686A.674.674,0,0,1,0,0" fill="#88ffdb"/></g><g transform="translate(30.875 -31.681)"><path d="M0,0A.672.672,0,0,1-.66-.684a.675.675,0,0,1,.687-.66.674.674,0,0,1,.659.686A.672.672,0,0,1,0,0" fill="#88ffdb"/></g><g transform="translate(30.822 -28.992)"><path d="M0,0A.672.672,0,0,1-.66-.685a.672.672,0,0,1,.686-.659.674.674,0,0,1,.66.686A.673.673,0,0,1,0,0" fill="#88ffdb"/></g><g transform="translate(28.504 -47.866)"><path d="M0,0A.672.672,0,0,1-.658-.686a.672.672,0,0,1,.685-.659.674.674,0,0,1,.66.685A.673.673,0,0,1,0,0" fill="#88ffdb"/></g><g transform="translate(28.452 -45.179)"><path d="M0,0A.671.671,0,0,1-.659-.684a.672.672,0,0,1,.685-.658.672.672,0,0,1,.659.685A.669.669,0,0,1,0,0" fill="#88ffdb"/></g><g transform="translate(28.398 -42.489)"><path d="M0,0A.671.671,0,0,1-.658-.685a.672.672,0,0,1,.685-.659.671.671,0,0,1,.659.686A.671.671,0,0,1,0,0" fill="#88ffdb"/></g><g transform="translate(28.345 -39.8)"><path d="M0,0A.672.672,0,0,1-.659-.686a.674.674,0,0,1,.685-.658.673.673,0,0,1,.66.685A.671.671,0,0,1,0,0" fill="#88ffdb"/></g><g transform="translate(28.292 -37.111)"><path d="M0,0A.672.672,0,0,1-.658-.686a.672.672,0,0,1,.684-.66.674.674,0,0,1,.66.687A.673.673,0,0,1,0,0" fill="#88ffdb"/></g><g transform="translate(28.239 -34.421)"><path d="M0,0A.672.672,0,0,1-.659-.686a.673.673,0,0,1,.685-.66.676.676,0,0,1,.66.687A.673.673,0,0,1,0,0" fill="#88ffdb"/></g><g transform="translate(28.186 -31.734)"><path d="M0,0A.671.671,0,0,1-.659-.684a.673.673,0,0,1,.685-.66.675.675,0,0,1,.66.686A.673.673,0,0,1,0,0" fill="#88ffdb"/></g><g transform="translate(28.132 -29.044)"><path d="M0,0A.672.672,0,0,1-.658-.686a.672.672,0,0,1,.685-.659.675.675,0,0,1,.66.686A.673.673,0,0,1,0,0" fill="#88ffdb"/></g><g transform="translate(28.079 -26.355)"><path d="M0,0A.673.673,0,0,1-.658-.686a.673.673,0,0,1,.685-.66.675.675,0,0,1,.66.686A.674.674,0,0,1,0,0" fill="#88ffdb"/></g><g transform="translate(25.87 -50.609)"><path d="M0,0A.672.672,0,0,1-.659-.686a.671.671,0,0,1,.685-.658.674.674,0,0,1,.66.685A.674.674,0,0,1,0,0" fill="#88ffdb"/></g><g transform="translate(25.816 -47.919)"><path d="M0,0A.672.672,0,0,1-.658-.686a.672.672,0,0,1,.685-.659.675.675,0,0,1,.66.686A.674.674,0,0,1,0,0" fill="#88ffdb"/></g><g transform="translate(25.764 -45.232)"><path d="M0,0A.671.671,0,0,1-.659-.684a.672.672,0,0,1,.685-.658.674.674,0,0,1,.66.685A.672.672,0,0,1,0,0" fill="#88ffdb"/></g><g transform="translate(25.71 -42.542)"><path d="M0,0A.674.674,0,0,1-.659-.685a.674.674,0,0,1,.685-.66.674.674,0,0,1,.66.687A.672.672,0,0,1,0,0" fill="#88ffdb"/></g><g transform="translate(25.657 -39.854)"><path d="M0,0A.67.67,0,0,1-.658-.686a.673.673,0,0,1,.684-.658.674.674,0,0,1,.66.685A.672.672,0,0,1,0,0" fill="#88ffdb"/></g><g transform="translate(25.604 -37.165)"><path d="M0,0A.672.672,0,0,1-.658-.686a.673.673,0,0,1,.684-.66.674.674,0,0,1,.66.687A.673.673,0,0,1,0,0" fill="#88ffdb"/></g><g transform="translate(25.551 -34.475)"><path d="M0,0A.672.672,0,0,1-.659-.687a.673.673,0,0,1,.685-.659.676.676,0,0,1,.66.687A.674.674,0,0,1,0,0" fill="#88ffdb"/></g><g transform="translate(25.498 -31.788)"><path d="M0,0A.672.672,0,0,1-.659-.685a.673.673,0,0,1,.685-.659.676.676,0,0,1,.66.687A.673.673,0,0,1,0,0" fill="#88ffdb"/></g><g transform="translate(25.443 -29.098)"><path d="M0,0A.671.671,0,0,1-.658-.685a.671.671,0,0,1,.685-.659.674.674,0,0,1,.66.686A.673.673,0,0,1,0,0" fill="#88ffdb"/></g><g transform="translate(25.39 -26.409)"><path d="M0,0A.672.672,0,0,1-.658-.686a.672.672,0,0,1,.685-.659.674.674,0,0,1,.66.686A.673.673,0,0,1,0,0" fill="#88ffdb"/></g><g transform="translate(25.337 -23.719)"><path d="M0,0A.673.673,0,0,1-.659-.686a.672.672,0,0,1,.685-.659.673.673,0,0,1,.66.686A.672.672,0,0,1,0,0" fill="#88ffdb"/></g><g transform="translate(23.233 -53.351)"><path d="M0,0A.67.67,0,0,1-.658-.686a.67.67,0,0,1,.685-.658.673.673,0,0,1,.66.684A.673.673,0,0,1,0,0" fill="#88ffdb"/></g><g transform="translate(23.181 -50.662)"><path d="M0,0A.673.673,0,0,1-.659-.687a.671.671,0,0,1,.685-.657.672.672,0,0,1,.66.684A.673.673,0,0,1,0,0" fill="#88ffdb"/></g><g transform="translate(23.127 -47.972)"><path d="M0,0A.673.673,0,0,1-.659-.687a.673.673,0,0,1,.685-.659.673.673,0,0,1,.66.686A.673.673,0,0,1,0,0" fill="#88ffdb"/></g><g transform="translate(23.074 -45.285)"><path d="M0,0A.672.672,0,0,1-.659-.685a.672.672,0,0,1,.686-.657.671.671,0,0,1,.659.684A.672.672,0,0,1,0,0" fill="#88ffdb"/></g><g transform="translate(23.021 -42.595)"><path d="M0,0A.673.673,0,0,1-.66-.686a.673.673,0,0,1,.686-.659.673.673,0,0,1,.66.686A.673.673,0,0,1,0,0" fill="#88ffdb"/></g><g transform="translate(22.968 -39.907)"><path d="M0,0A.671.671,0,0,1-.66-.686a.674.674,0,0,1,.686-.657.673.673,0,0,1,.66.684A.671.671,0,0,1,0,0" fill="#88ffdb"/></g><g transform="translate(22.914 -37.218)"><path d="M0,0A.672.672,0,0,1-.658-.686a.673.673,0,0,1,.685-.66.675.675,0,0,1,.66.687A.674.674,0,0,1,0,0" fill="#88ffdb"/></g><g transform="translate(22.861 -34.528)"><path d="M0,0A.672.672,0,0,1-.659-.686a.672.672,0,0,1,.685-.659.672.672,0,0,1,.66.685A.673.673,0,0,1,0,0" fill="#88ffdb"/></g><g transform="translate(22.808 -31.841)"><path d="M0,0A.669.669,0,0,1-.658-.684a.672.672,0,0,1,.685-.659.673.673,0,0,1,.659.686A.67.67,0,0,1,0,0" fill="#88ffdb"/></g><g transform="translate(22.755 -29.151)"><path d="M0,0A.672.672,0,0,1-.659-.685a.672.672,0,0,1,.685-.66.673.673,0,0,1,.66.686A.673.673,0,0,1,0,0" fill="#88ffdb"/></g><g transform="translate(22.702 -26.462)"><path d="M0,0A.672.672,0,0,1-.659-.686a.672.672,0,0,1,.685-.659.673.673,0,0,1,.66.686A.673.673,0,0,1,0,0" fill="#88ffdb"/></g><g transform="translate(22.649 -23.772)"><path d="M0,0A.674.674,0,0,1-.66-.686a.672.672,0,0,1,.686-.659.673.673,0,0,1,.66.686A.673.673,0,0,1,0,0" fill="#88ffdb"/></g><g transform="translate(22.596 -21.085)"><path d="M0,0A.671.671,0,0,1-.66-.686a.671.671,0,0,1,.686-.657.672.672,0,0,1,.66.684A.672.672,0,0,1,0,0" fill="#88ffdb"/></g><g transform="translate(20.599 -56.093)"><path d="M0,0A.673.673,0,0,1-.66-.686a.674.674,0,0,1,.686-.659.674.674,0,0,1,.659.686A.672.672,0,0,1,0,0" fill="#88ffdb"/></g><g transform="translate(20.545 -53.404)"><path d="M0,0A.671.671,0,0,1-.659-.687a.672.672,0,0,1,.686-.657A.671.671,0,0,1,.686-.66.672.672,0,0,1,0,0" fill="#88ffdb"/></g><g transform="translate(20.492 -50.715)"><path d="M0,0A.674.674,0,0,1-.66-.687a.672.672,0,0,1,.686-.657.672.672,0,0,1,.66.684A.674.674,0,0,1,0,0" fill="#88ffdb"/></g><g transform="translate(20.439 -48.025)"><path d="M0,0A.673.673,0,0,1-.659-.687a.673.673,0,0,1,.685-.659.673.673,0,0,1,.66.686A.675.675,0,0,1,0,0" fill="#88ffdb"/></g><g transform="translate(20.386 -45.339)"><path d="M0,0A.67.67,0,0,1-.659-.684a.67.67,0,0,1,.686-.657.67.67,0,0,1,.658.683A.671.671,0,0,1,0,0" fill="#88ffdb"/></g><g transform="translate(20.333 -42.649)"><path d="M0,0A.672.672,0,0,1-.659-.685a.671.671,0,0,1,.686-.659.672.672,0,0,1,.658.686A.671.671,0,0,1,0,0" fill="#88ffdb"/></g><g transform="translate(20.28 -39.96)"><path d="M0,0A.672.672,0,0,1-.66-.686a.673.673,0,0,1,.686-.657A.671.671,0,0,1,.685-.66.672.672,0,0,1,0,0" fill="#88ffdb"/></g><g transform="translate(20.226 -37.271)"><path d="M0,0A.672.672,0,0,1-.658-.686a.671.671,0,0,1,.685-.659A.672.672,0,0,1,.686-.66.673.673,0,0,1,0,0" fill="#88ffdb"/></g><g transform="translate(20.173 -34.581)"><path d="M0,0A.673.673,0,0,1-.66-.686a.673.673,0,0,1,.687-.659A.672.672,0,0,1,.686-.66.674.674,0,0,1,0,0" fill="#88ffdb"/></g><g transform="translate(20.12 -31.894)"><path d="M0,0A.671.671,0,0,1-.659-.684a.672.672,0,0,1,.685-.659.674.674,0,0,1,.66.685A.673.673,0,0,1,0,0" fill="#88ffdb"/></g><g transform="translate(20.066 -29.204)"><path d="M0,0A.671.671,0,0,1-.659-.685a.671.671,0,0,1,.685-.659.673.673,0,0,1,.66.685A.673.673,0,0,1,0,0" fill="#88ffdb"/></g><g transform="translate(20.013 -26.515)"><path d="M0,0A.673.673,0,0,1-.659-.686a.673.673,0,0,1,.686-.659A.673.673,0,0,1,.686-.66.675.675,0,0,1,0,0" fill="#88ffdb"/></g><g transform="translate(19.96 -23.825)"><path d="M0,0A.672.672,0,0,1-.659-.686a.67.67,0,0,1,.685-.659A.672.672,0,0,1,.685-.66.673.673,0,0,1,0,0" fill="#88ffdb"/></g><g transform="translate(19.907 -21.138)"><path d="M0,0A.672.672,0,0,1-.66-.687a.672.672,0,0,1,.686-.657.674.674,0,0,1,.66.684A.673.673,0,0,1,0,0" fill="#88ffdb"/></g><g transform="translate(19.854 -18.449)"><path d="M0,0A.672.672,0,0,1-.66-.685a.675.675,0,0,1,.687-.66.674.674,0,0,1,.658.687A.672.672,0,0,1,0,0" fill="#88ffdb"/></g><g transform="translate(17.963 -58.835)"><path d="M0,0A.671.671,0,0,1-.659-.686a.672.672,0,0,1,.685-.659.674.674,0,0,1,.66.686A.673.673,0,0,1,0,0" fill="#88ffdb"/></g><g transform="translate(17.91 -56.147)"><path d="M0,0A.67.67,0,0,1-.659-.685a.672.672,0,0,1,.685-.659.673.673,0,0,1,.66.686A.672.672,0,0,1,0,0" fill="#88ffdb"/></g><g transform="translate(17.856 -53.458)"><path d="M0,0A.671.671,0,0,1-.659-.686a.671.671,0,0,1,.686-.657.671.671,0,0,1,.659.684A.671.671,0,0,1,0,0" fill="#88ffdb"/></g><g transform="translate(17.804 -50.769)"><path d="M0,0A.673.673,0,0,1-.66-.686a.671.671,0,0,1,.686-.657.671.671,0,0,1,.659.684A.671.671,0,0,1,0,0" fill="#88ffdb"/></g><g transform="translate(17.75 -48.079)"><path d="M0,0A.672.672,0,0,1-.658-.686a.672.672,0,0,1,.685-.659.672.672,0,0,1,.659.686A.672.672,0,0,1,0,0" fill="#88ffdb"/></g><g transform="translate(17.697 -45.392)"><path d="M0,0A.672.672,0,0,1-.66-.684a.671.671,0,0,1,.686-.657.671.671,0,0,1,.659.684A.67.67,0,0,1,0,0" fill="#88ffdb"/></g><g transform="translate(17.644 -42.702)"><path d="M0,0A.673.673,0,0,1-.66-.685a.672.672,0,0,1,.686-.659.673.673,0,0,1,.66.686A.673.673,0,0,1,0,0" fill="#88ffdb"/></g><g transform="translate(17.59 -40.013)"><path d="M0,0A.671.671,0,0,1-.659-.686a.672.672,0,0,1,.686-.657.673.673,0,0,1,.659.684A.672.672,0,0,1,0,0" fill="#88ffdb"/></g><g transform="translate(17.537 -37.324)"><path d="M0,0A.672.672,0,0,1-.659-.686a.674.674,0,0,1,.685-.66.675.675,0,0,1,.66.687A.673.673,0,0,1,0,0" fill="#88ffdb"/></g><g transform="translate(17.484 -34.634)"><path d="M0,0A.674.674,0,0,1-.66-.686a.674.674,0,0,1,.686-.66.676.676,0,0,1,.66.687A.673.673,0,0,1,0,0" fill="#88ffdb"/></g><g transform="translate(17.431 -31.947)"><path d="M0,0A.67.67,0,0,1-.659-.685a.672.672,0,0,1,.685-.659.674.674,0,0,1,.659.687A.671.671,0,0,1,0,0" fill="#88ffdb"/></g><g transform="translate(17.378 -29.257)"><path d="M0,0A.673.673,0,0,1-.66-.686a.673.673,0,0,1,.686-.659.673.673,0,0,1,.659.687A.671.671,0,0,1,0,0" fill="#88ffdb"/></g><g transform="translate(17.325 -26.568)"><path d="M0,0A.673.673,0,0,1-.66-.686a.675.675,0,0,1,.686-.66.673.673,0,0,1,.659.687A.673.673,0,0,1,0,0" fill="#88ffdb"/></g><g transform="translate(17.271 -23.878)"><path d="M0,0A.675.675,0,0,1-.66-.687a.673.673,0,0,1,.686-.659.674.674,0,0,1,.66.687A.674.674,0,0,1,0,0" fill="#88ffdb"/></g><g transform="translate(17.218 -21.192)"><path d="M0,0A.672.672,0,0,1-.66-.686a.671.671,0,0,1,.686-.657.672.672,0,0,1,.66.684A.671.671,0,0,1,0,0" fill="#88ffdb"/></g><g transform="translate(17.165 -18.501)"><path d="M0,0A.672.672,0,0,1-.659-.686a.673.673,0,0,1,.686-.659.674.674,0,0,1,.659.686A.673.673,0,0,1,0,0" fill="#88ffdb"/></g><g transform="translate(17.112 -15.813)"><path d="M0,0A.673.673,0,0,1-.66-.686a.671.671,0,0,1,.686-.657.672.672,0,0,1,.66.684A.674.674,0,0,1,0,0" fill="#88ffdb"/></g><g transform="translate(15.328 -61.578)"><path d="M0,0A.672.672,0,0,1-.66-.686a.671.671,0,0,1,.686-.657.671.671,0,0,1,.659.684A.672.672,0,0,1,0,0" fill="#88ffdb"/></g><g transform="translate(15.274 -58.888)"><path d="M0,0A.671.671,0,0,1-.659-.686a.672.672,0,0,1,.685-.659.674.674,0,0,1,.659.686A.673.673,0,0,1,0,0" fill="#88ffdb"/></g><g transform="translate(15.221 -56.2)"><path d="M0,0A.672.672,0,0,1-.66-.685a.673.673,0,0,1,.686-.659.673.673,0,0,1,.659.686A.672.672,0,0,1,0,0" fill="#88ffdb"/></g><g transform="translate(15.167 -53.511)"><path d="M0,0A.672.672,0,0,1-.659-.686a.671.671,0,0,1,.686-.657.671.671,0,0,1,.659.684A.671.671,0,0,1,0,0" fill="#88ffdb"/></g><g transform="translate(15.114 -50.822)"><path d="M0,0A.673.673,0,0,1-.66-.686a.672.672,0,0,1,.686-.657.672.672,0,0,1,.66.684A.673.673,0,0,1,0,0" fill="#88ffdb"/></g><g transform="translate(15.061 -48.132)"><path d="M0,0A.673.673,0,0,1-.659-.686a.674.674,0,0,1,.685-.66.673.673,0,0,1,.659.687A.672.672,0,0,1,0,0" fill="#88ffdb"/></g><g transform="translate(15.008 -45.445)"><path d="M0,0A.671.671,0,0,1-.659-.684a.672.672,0,0,1,.686-.658.672.672,0,0,1,.658.685A.67.67,0,0,1,0,0" fill="#88ffdb"/></g><g transform="translate(14.955 -42.755)"><path d="M0,0A.672.672,0,0,1-.66-.685a.673.673,0,0,1,.686-.66.674.674,0,0,1,.659.687A.672.672,0,0,1,0,0" fill="#88ffdb"/></g><g transform="translate(14.902 -40.066)"><path d="M0,0A.672.672,0,0,1-.66-.686a.674.674,0,0,1,.686-.658.674.674,0,0,1,.659.685A.672.672,0,0,1,0,0" fill="#88ffdb"/></g><g transform="translate(14.849 -37.377)"><path d="M0,0A.672.672,0,0,1-.659-.686a.673.673,0,0,1,.685-.66A.674.674,0,0,1,.685-.66.674.674,0,0,1,0,0" fill="#88ffdb"/></g><g transform="translate(14.795 -34.688)"><path d="M0,0A.675.675,0,0,1-.66-.686a.675.675,0,0,1,.686-.66A.673.673,0,0,1,.685-.66.673.673,0,0,1,0,0" fill="#88ffdb"/></g><g transform="translate(14.742 -32)"><path d="M0,0A.671.671,0,0,1-.659-.684a.674.674,0,0,1,.685-.66.673.673,0,0,1,.659.686A.671.671,0,0,1,0,0" fill="#88ffdb"/></g><g transform="translate(14.689 -29.31)"><path d="M0,0A.672.672,0,0,1-.659-.685a.673.673,0,0,1,.685-.66.673.673,0,0,1,.659.686A.672.672,0,0,1,0,0" fill="#88ffdb"/></g><g transform="translate(14.635 -26.622)"><path d="M0,0A.671.671,0,0,1-.659-.686a.673.673,0,0,1,.685-.659.672.672,0,0,1,.659.686A.671.671,0,0,1,0,0" fill="#88ffdb"/></g><g transform="translate(14.583 -23.932)"><path d="M0,0A.673.673,0,0,1-.66-.686a.673.673,0,0,1,.686-.659.673.673,0,0,1,.659.686A.672.672,0,0,1,0,0" fill="#88ffdb"/></g><g transform="translate(14.529 -21.245)"><path d="M0,0A.672.672,0,0,1-.66-.686a.672.672,0,0,1,.686-.657.671.671,0,0,1,.659.684A.671.671,0,0,1,0,0" fill="#88ffdb"/></g><g transform="translate(14.476 -18.555)"><path d="M0,0A.672.672,0,0,1-.66-.685a.673.673,0,0,1,.687-.659.673.673,0,0,1,.658.686A.672.672,0,0,1,0,0" fill="#88ffdb"/></g><g transform="translate(14.422 -15.866)"><path d="M0,0A.674.674,0,0,1-.66-.686a.672.672,0,0,1,.686-.657.672.672,0,0,1,.66.684A.674.674,0,0,1,0,0" fill="#88ffdb"/></g><g transform="translate(14.369 -13.177)"><path d="M0,0A.675.675,0,0,1-.66-.686a.674.674,0,0,1,.687-.659.674.674,0,0,1,.659.686A.673.673,0,0,1,0,0" fill="#88ffdb"/></g><g transform="translate(12.692 -64.32)"><path d="M0,0A.67.67,0,0,1-.659-.684a.671.671,0,0,1,.686-.659.67.67,0,0,1,.657.686A.669.669,0,0,1,0,0" fill="#88ffdb"/></g><g transform="translate(12.639 -61.631)"><path d="M0,0A.672.672,0,0,1-.66-.686a.671.671,0,0,1,.686-.657.671.671,0,0,1,.658.684A.673.673,0,0,1,0,0" fill="#88ffdb"/></g><g transform="translate(12.586 -58.941)"><path d="M0,0A.671.671,0,0,1-.659-.686a.672.672,0,0,1,.685-.66A.674.674,0,0,1,.684-.66.673.673,0,0,1,0,0" fill="#88ffdb"/></g><g transform="translate(12.533 -56.253)"><path d="M0,0A.67.67,0,0,1-.659-.685a.671.671,0,0,1,.686-.659.672.672,0,0,1,.657.686A.671.671,0,0,1,0,0" fill="#88ffdb"/></g><g transform="translate(12.479 -53.564)"><path d="M0,0A.672.672,0,0,1-.659-.687a.671.671,0,0,1,.685-.657A.672.672,0,0,1,.685-.66.672.672,0,0,1,0,0" fill="#88ffdb"/></g><g transform="translate(12.426 -50.875)"><path d="M0,0A.674.674,0,0,1-.66-.687a.672.672,0,0,1,.686-.657A.672.672,0,0,1,.685-.66.673.673,0,0,1,0,0" fill="#88ffdb"/></g><g transform="translate(12.373 -48.185)"><path d="M0,0A.673.673,0,0,1-.659-.687a.673.673,0,0,1,.685-.659A.672.672,0,0,1,.684-.66.672.672,0,0,1,0,0" fill="#88ffdb"/></g><g transform="translate(12.319 -45.499)"><path d="M0,0A.67.67,0,0,1-.659-.684a.671.671,0,0,1,.686-.658.671.671,0,0,1,.657.685A.67.67,0,0,1,0,0" fill="#88ffdb"/></g><g transform="translate(12.267 -42.809)"><path d="M0,0A.672.672,0,0,1-.66-.685a.672.672,0,0,1,.686-.659.671.671,0,0,1,.658.685A.672.672,0,0,1,0,0" fill="#88ffdb"/></g><g transform="translate(12.213 -40.12)"><path d="M0,0A.671.671,0,0,1-.66-.686a.674.674,0,0,1,.686-.658.673.673,0,0,1,.658.685A.671.671,0,0,1,0,0" fill="#88ffdb"/></g><g transform="translate(12.16 -37.431)"><path d="M0,0A.671.671,0,0,1-.659-.686a.672.672,0,0,1,.685-.659.672.672,0,0,1,.658.686A.671.671,0,0,1,0,0" fill="#88ffdb"/></g><g transform="translate(12.106 -34.74)"><path d="M0,0A.675.675,0,0,1-.66-.687a.674.674,0,0,1,.687-.659A.673.673,0,0,1,.685-.66.673.673,0,0,1,0,0" fill="#88ffdb"/></g><g transform="translate(12.054 -32.054)"><path d="M0,0A.67.67,0,0,1-.66-.684a.672.672,0,0,1,.685-.659.672.672,0,0,1,.658.686A.669.669,0,0,1,0,0" fill="#88ffdb"/></g><g transform="translate(12 -29.364)"><path d="M0,0A.671.671,0,0,1-.659-.685a.672.672,0,0,1,.685-.66.673.673,0,0,1,.658.687A.671.671,0,0,1,0,0" fill="#88ffdb"/></g><g transform="translate(11.947 -26.675)"><path d="M0,0A.672.672,0,0,1-.659-.686a.673.673,0,0,1,.686-.659.671.671,0,0,1,.657.686A.67.67,0,0,1,0,0" fill="#88ffdb"/></g><g transform="translate(11.894 -23.985)"><path d="M0,0A.671.671,0,0,1-.659-.686a.67.67,0,0,1,.685-.659.672.672,0,0,1,.658.686A.672.672,0,0,1,0,0" fill="#88ffdb"/></g><g transform="translate(11.841 -21.298)"><path d="M0,0A.671.671,0,0,1-.66-.686a.671.671,0,0,1,.686-.657.671.671,0,0,1,.658.684A.671.671,0,0,1,0,0" fill="#88ffdb"/></g><g transform="translate(11.788 -18.608)"><path d="M0,0A.67.67,0,0,1-.659-.685a.671.671,0,0,1,.686-.659.672.672,0,0,1,.657.685A.672.672,0,0,1,0,0" fill="#88ffdb"/></g><g transform="translate(11.734 -15.919)"><path d="M0,0A.672.672,0,0,1-.659-.686a.67.67,0,0,1,.685-.657A.671.671,0,0,1,.685-.66.674.674,0,0,1,0,0" fill="#88ffdb"/></g><g transform="translate(11.681 -13.231)"><path d="M0,0A.673.673,0,0,1-.66-.686a.675.675,0,0,1,.687-.66A.674.674,0,0,1,.685-.66.673.673,0,0,1,0,0" fill="#88ffdb"/></g><g transform="translate(11.627 -10.54)"><path d="M0,0A.672.672,0,0,1-.659-.686a.674.674,0,0,1,.685-.66A.672.672,0,0,1,.684-.66.672.672,0,0,1,0,0" fill="#88ffdb"/></g><g transform="translate(10.056 -67.062)"><path d="M0,0A.674.674,0,0,1-.66-.687a.674.674,0,0,1,.686-.658.673.673,0,0,1,.659.686A.672.672,0,0,1,0,0" fill="#88ffdb"/></g><g transform="translate(10.002 -64.373)"><path d="M0,0A.671.671,0,0,1-.659-.685a.672.672,0,0,1,.686-.659.672.672,0,0,1,.658.686A.671.671,0,0,1,0,0" fill="#88ffdb"/></g><g transform="translate(9.95 -61.684)"><path d="M0,0A.674.674,0,0,1-.66-.687a.672.672,0,0,1,.686-.657A.672.672,0,0,1,.685-.66.674.674,0,0,1,0,0" fill="#88ffdb"/></g><g transform="translate(9.896 -58.994)"><path d="M0,0A.673.673,0,0,1-.659-.687a.672.672,0,0,1,.685-.659A.674.674,0,0,1,.685-.66.674.674,0,0,1,0,0" fill="#88ffdb"/></g><g transform="translate(9.843 -56.306)"><path d="M0,0A.673.673,0,0,1-.66-.686a.674.674,0,0,1,.686-.659.674.674,0,0,1,.659.686A.673.673,0,0,1,0,0" fill="#88ffdb"/></g><g transform="translate(9.79 -53.617)"><path d="M0,0A.674.674,0,0,1-.661-.686a.674.674,0,0,1,.686-.658.673.673,0,0,1,.66.684A.673.673,0,0,1,0,0" fill="#88ffdb"/></g><g transform="translate(9.736 -50.928)"><path d="M0,0A.676.676,0,0,1-.66-.687a.673.673,0,0,1,.686-.657.673.673,0,0,1,.66.684A.674.674,0,0,1,0,0" fill="#88ffdb"/></g><g transform="translate(9.683 -48.239)"><path d="M0,0A.673.673,0,0,1-.659-.686a.673.673,0,0,1,.685-.659.672.672,0,0,1,.659.686A.671.671,0,0,1,0,0" fill="#88ffdb"/></g><g transform="translate(9.63 -45.552)"><path d="M0,0A.671.671,0,0,1-.659-.684a.671.671,0,0,1,.686-.657.671.671,0,0,1,.658.684A.67.67,0,0,1,0,0" fill="#88ffdb"/></g><g transform="translate(9.577 -42.862)"><path d="M0,0A.672.672,0,0,1-.66-.685a.673.673,0,0,1,.686-.659.673.673,0,0,1,.659.686A.671.671,0,0,1,0,0" fill="#88ffdb"/></g><g transform="translate(9.524 -40.173)"><path d="M0,0A.671.671,0,0,1-.659-.686a.672.672,0,0,1,.686-.657.673.673,0,0,1,.658.684A.672.672,0,0,1,0,0" fill="#88ffdb"/></g><g transform="translate(9.471 -37.484)"><path d="M0,0A.672.672,0,0,1-.659-.686a.672.672,0,0,1,.685-.659.673.673,0,0,1,.659.686A.673.673,0,0,1,0,0" fill="#88ffdb"/></g><g transform="translate(9.417 -34.794)"><path d="M0,0A.675.675,0,0,1-.66-.686a.674.674,0,0,1,.687-.659.674.674,0,0,1,.659.686A.673.673,0,0,1,0,0" fill="#88ffdb"/></g><g transform="translate(9.364 -32.107)"><path d="M0,0A.671.671,0,0,1-.659-.684a.672.672,0,0,1,.685-.659.674.674,0,0,1,.66.686A.672.672,0,0,1,0,0" fill="#88ffdb"/></g><g transform="translate(9.311 -29.417)"><path d="M0,0A.673.673,0,0,1-.659-.686a.673.673,0,0,1,.685-.659.673.673,0,0,1,.659.687A.671.671,0,0,1,0,0" fill="#88ffdb"/></g><g transform="translate(9.257 -26.728)"><path d="M0,0A.673.673,0,0,1-.659-.686a.672.672,0,0,1,.686-.659.672.672,0,0,1,.658.686A.672.672,0,0,1,0,0" fill="#88ffdb"/></g><g transform="translate(9.205 -24.038)"><path d="M0,0A.674.674,0,0,1-.66-.687a.674.674,0,0,1,.686-.659A.673.673,0,0,1,.685-.66.674.674,0,0,1,0,0" fill="#88ffdb"/></g><g transform="translate(9.151 -21.351)"><path d="M0,0A.674.674,0,0,1-.66-.687a.672.672,0,0,1,.686-.657.672.672,0,0,1,.659.685A.672.672,0,0,1,0,0" fill="#88ffdb"/></g><g transform="translate(9.098 -18.661)"><path d="M0,0A.673.673,0,0,1-.66-.686a.674.674,0,0,1,.687-.659.674.674,0,0,1,.658.686A.673.673,0,0,1,0,0" fill="#88ffdb"/></g><g transform="translate(9.045 -15.972)"><path d="M0,0A.676.676,0,0,1-.661-.687a.673.673,0,0,1,.686-.657.673.673,0,0,1,.66.684A.674.674,0,0,1,0,0" fill="#88ffdb"/></g><g transform="translate(8.991 -13.283)"><path d="M0,0A.676.676,0,0,1-.66-.687a.675.675,0,0,1,.687-.659A.674.674,0,0,1,.686-.66.674.674,0,0,1,0,0" fill="#88ffdb"/></g><g transform="translate(8.938 -10.593)"><path d="M0,0A.674.674,0,0,1-.659-.687a.674.674,0,0,1,.685-.659A.672.672,0,0,1,.685-.66.673.673,0,0,1,0,0" fill="#88ffdb"/></g><g transform="translate(8.885 -7.905)"><path d="M0,0A.673.673,0,0,1-.66-.686a.672.672,0,0,1,.686-.659.671.671,0,0,1,.659.686A.672.672,0,0,1,0,0" fill="#88ffdb"/></g><g transform="translate(7.42 -69.803)"><path d="M0,0A.674.674,0,0,1-.66-.686a.675.675,0,0,1,.687-.66A.674.674,0,0,1,.685-.66.674.674,0,0,1,0,0" fill="#88ffdb"/></g><g transform="translate(7.367 -67.115)"><path d="M0,0A.673.673,0,0,1-.66-.686a.674.674,0,0,1,.686-.659A.674.674,0,0,1,.685-.66.673.673,0,0,1,0,0" fill="#88ffdb"/></g><g transform="translate(7.314 -64.426)"><path d="M0,0A.671.671,0,0,1-.659-.684a.673.673,0,0,1,.686-.66.673.673,0,0,1,.658.686A.671.671,0,0,1,0,0" fill="#88ffdb"/></g><g transform="translate(7.261 -61.737)"><path d="M0,0A.672.672,0,0,1-.66-.686a.672.672,0,0,1,.686-.658A.673.673,0,0,1,.685-.66.674.674,0,0,1,0,0" fill="#88ffdb"/></g><g transform="translate(7.208 -59.048)"><path d="M0,0A.671.671,0,0,1-.659-.686a.67.67,0,0,1,.685-.659.673.673,0,0,1,.658.686A.672.672,0,0,1,0,0" fill="#88ffdb"/></g><g transform="translate(7.155 -56.36)"><path d="M0,0A.672.672,0,0,1-.66-.685a.673.673,0,0,1,.686-.659.672.672,0,0,1,.658.686A.671.671,0,0,1,0,0" fill="#88ffdb"/></g><g transform="translate(7.102 -53.671)"><path d="M0,0A.672.672,0,0,1-.66-.686a.671.671,0,0,1,.686-.657.671.671,0,0,1,.658.684A.671.671,0,0,1,0,0" fill="#88ffdb"/></g><g transform="translate(7.048 -50.982)"><path d="M0,0A.674.674,0,0,1-.66-.686a.671.671,0,0,1,.686-.657.671.671,0,0,1,.659.684A.673.673,0,0,1,0,0" fill="#88ffdb"/></g><g transform="translate(6.995 -48.292)"><path d="M0,0A.671.671,0,0,1-.659-.686a.672.672,0,0,1,.685-.659.673.673,0,0,1,.659.686A.673.673,0,0,1,0,0" fill="#88ffdb"/></g><g transform="translate(6.941 -45.605)"><path d="M0,0A.67.67,0,0,1-.659-.684a.67.67,0,0,1,.686-.657.672.672,0,0,1,.658.684A.671.671,0,0,1,0,0" fill="#88ffdb"/></g><g transform="translate(6.889 -42.915)"><path d="M0,0A.673.673,0,0,1-.66-.685a.672.672,0,0,1,.686-.659.673.673,0,0,1,.659.686A.673.673,0,0,1,0,0" fill="#88ffdb"/></g><g transform="translate(6.835 -40.226)"><path d="M0,0A.67.67,0,0,1-.659-.686a.672.672,0,0,1,.685-.658.675.675,0,0,1,.659.685A.672.672,0,0,1,0,0" fill="#88ffdb"/></g><g transform="translate(6.782 -37.537)"><path d="M0,0A.671.671,0,0,1-.659-.686a.671.671,0,0,1,.685-.659.672.672,0,0,1,.658.686A.673.673,0,0,1,0,0" fill="#88ffdb"/></g><g transform="translate(6.728 -34.847)"><path d="M0,0A.675.675,0,0,1-.66-.686a.675.675,0,0,1,.687-.66A.674.674,0,0,1,.685-.66.672.672,0,0,1,0,0" fill="#88ffdb"/></g><g transform="translate(6.675 -32.16)"><path d="M0,0A.671.671,0,0,1-.659-.684a.673.673,0,0,1,.686-.66.674.674,0,0,1,.658.686A.673.673,0,0,1,0,0" fill="#88ffdb"/></g><g transform="translate(6.622 -29.47)"><path d="M0,0A.673.673,0,0,1-.659-.686a.672.672,0,0,1,.685-.659.673.673,0,0,1,.659.686A.673.673,0,0,1,0,0" fill="#88ffdb"/></g><g transform="translate(6.569 -26.781)"><path d="M0,0A.674.674,0,0,1-.659-.686a.673.673,0,0,1,.685-.66A.674.674,0,0,1,.685-.66.674.674,0,0,1,0,0" fill="#88ffdb"/></g><g transform="translate(6.516 -24.091)"><path d="M0,0A.673.673,0,0,1-.66-.687a.673.673,0,0,1,.686-.659A.674.674,0,0,1,.685-.66.674.674,0,0,1,0,0" fill="#88ffdb"/></g><g transform="translate(6.463 -21.404)"><path d="M0,0A.672.672,0,0,1-.66-.687a.672.672,0,0,1,.686-.657A.673.673,0,0,1,.685-.66.673.673,0,0,1,0,0" fill="#88ffdb"/></g><g transform="translate(6.41 -18.715)"><path d="M0,0A.67.67,0,0,1-.659-.685a.671.671,0,0,1,.686-.659.672.672,0,0,1,.657.686A.671.671,0,0,1,0,0" fill="#88ffdb"/></g><g transform="translate(6.357 -16.026)"><path d="M0,0A.673.673,0,0,1-.66-.686a.67.67,0,0,1,.685-.657.671.671,0,0,1,.659.684A.673.673,0,0,1,0,0" fill="#88ffdb"/></g><g transform="translate(6.303 -13.337)"><path d="M0,0A.674.674,0,0,1-.66-.686a.673.673,0,0,1,.687-.659.673.673,0,0,1,.658.686A.673.673,0,0,1,0,0" fill="#88ffdb"/></g><g transform="translate(6.249 -10.647)"><path d="M0,0A.673.673,0,0,1-.659-.686a.673.673,0,0,1,.686-.659.672.672,0,0,1,.658.686A.673.673,0,0,1,0,0" fill="#88ffdb"/></g><g transform="translate(6.197 -7.958)"><path d="M0,0A.673.673,0,0,1-.66-.686a.672.672,0,0,1,.686-.659.672.672,0,0,1,.659.686A.674.674,0,0,1,0,0" fill="#88ffdb"/></g><g transform="translate(6.144 -5.27)"><path d="M0,0A.671.671,0,0,1-.659-.685a.672.672,0,0,1,.685-.659.674.674,0,0,1,.659.686A.673.673,0,0,1,0,0" fill="#88ffdb"/></g><g transform="translate(4.784 -72.545)"><path d="M0,0A.674.674,0,0,1-.66-.686a.674.674,0,0,1,.687-.659A.674.674,0,0,1,.686-.66.675.675,0,0,1,0,0" fill="#88ffdb"/></g><g transform="translate(4.731 -69.856)"><path d="M0,0A.673.673,0,0,1-.659-.686a.672.672,0,0,1,.685-.659A.673.673,0,0,1,.685-.66.672.672,0,0,1,0,0" fill="#88ffdb"/></g><g transform="translate(4.678 -67.169)"><path d="M0,0A.672.672,0,0,1-.659-.686a.673.673,0,0,1,.685-.658.672.672,0,0,1,.659.685A.672.672,0,0,1,0,0" fill="#88ffdb"/></g><g transform="translate(4.624 -64.479)"><path d="M0,0A.671.671,0,0,1-.659-.684a.672.672,0,0,1,.686-.659.67.67,0,0,1,.658.685A.671.671,0,0,1,0,0" fill="#88ffdb"/></g><g transform="translate(4.572 -61.791)"><path d="M0,0A.673.673,0,0,1-.66-.686a.672.672,0,0,1,.686-.657A.671.671,0,0,1,.685-.66.674.674,0,0,1,0,0" fill="#88ffdb"/></g><g transform="translate(4.519 -59.101)"><path d="M0,0A.672.672,0,0,1-.659-.686a.671.671,0,0,1,.685-.659A.672.672,0,0,1,.685-.66.674.674,0,0,1,0,0" fill="#88ffdb"/></g><g transform="translate(4.465 -56.413)"><path d="M0,0A.671.671,0,0,1-.659-.686a.673.673,0,0,1,.685-.659.674.674,0,0,1,.659.686A.673.673,0,0,1,0,0" fill="#88ffdb"/></g><g transform="translate(4.413 -53.724)"><path d="M0,0A.672.672,0,0,1-.66-.686a.671.671,0,0,1,.686-.657.672.672,0,0,1,.659.684A.672.672,0,0,1,0,0" fill="#88ffdb"/></g><g transform="translate(4.358 -51.035)"><path d="M0,0A.674.674,0,0,1-.66-.687a.673.673,0,0,1,.686-.657.674.674,0,0,1,.66.684A.675.675,0,0,1,0,0" fill="#88ffdb"/></g><g transform="translate(4.305 -48.345)"><path d="M0,0A.674.674,0,0,1-.659-.687a.674.674,0,0,1,.685-.659A.673.673,0,0,1,.685-.66.673.673,0,0,1,0,0" fill="#88ffdb"/></g><g transform="translate(4.252 -45.658)"><path d="M0,0A.671.671,0,0,1-.659-.685a.672.672,0,0,1,.686-.657.671.671,0,0,1,.658.684A.671.671,0,0,1,0,0" fill="#88ffdb"/></g><g transform="translate(4.199 -42.968)"><path d="M0,0A.673.673,0,0,1-.66-.685a.673.673,0,0,1,.686-.659.672.672,0,0,1,.659.686A.672.672,0,0,1,0,0" fill="#88ffdb"/></g><g transform="translate(4.146 -40.279)"><path d="M0,0A.671.671,0,0,1-.659-.686a.671.671,0,0,1,.685-.657A.672.672,0,0,1,.685-.66.672.672,0,0,1,0,0" fill="#88ffdb"/></g><g transform="translate(4.093 -37.59)"><path d="M0,0A.672.672,0,0,1-.659-.686a.673.673,0,0,1,.685-.66A.673.673,0,0,1,.685-.66.674.674,0,0,1,0,0" fill="#88ffdb"/></g><g transform="translate(4.039 -34.9)"><path d="M0,0A.675.675,0,0,1-.66-.686a.676.676,0,0,1,.687-.66A.674.674,0,0,1,.686-.66.675.675,0,0,1,0,0" fill="#88ffdb"/></g><g transform="translate(3.987 -32.213)"><path d="M0,0A.672.672,0,0,1-.66-.684a.672.672,0,0,1,.685-.659.672.672,0,0,1,.659.685A.671.671,0,0,1,0,0" fill="#88ffdb"/></g><g transform="translate(3.933 -29.524)"><path d="M0,0A.671.671,0,0,1-.659-.685a.673.673,0,0,1,.686-.659.672.672,0,0,1,.658.686A.671.671,0,0,1,0,0" fill="#88ffdb"/></g><g transform="translate(3.879 -26.834)"><path d="M0,0A.673.673,0,0,1-.659-.686a.675.675,0,0,1,.686-.66A.673.673,0,0,1,.685-.66.673.673,0,0,1,0,0" fill="#88ffdb"/></g><g transform="translate(3.827 -24.145)"><path d="M0,0A.671.671,0,0,1-.659-.686a.672.672,0,0,1,.685-.659.673.673,0,0,1,.659.686A.673.673,0,0,1,0,0" fill="#88ffdb"/></g><g transform="translate(3.773 -21.458)"><path d="M0,0A.671.671,0,0,1-.66-.686a.673.673,0,0,1,.686-.657.671.671,0,0,1,.659.684A.672.672,0,0,1,0,0" fill="#88ffdb"/></g><g transform="translate(3.72 -18.768)"><path d="M0,0A.671.671,0,0,1-.659-.685a.672.672,0,0,1,.686-.659.673.673,0,0,1,.658.686A.672.672,0,0,1,0,0" fill="#88ffdb"/></g><g transform="translate(3.668 -16.079)"><path d="M0,0A.673.673,0,0,1-.66-.686a.672.672,0,0,1,.686-.658.674.674,0,0,1,.659.685A.674.674,0,0,1,0,0" fill="#88ffdb"/></g><g transform="translate(3.613 -13.39)"><path d="M0,0A.673.673,0,0,1-.659-.686a.673.673,0,0,1,.686-.659.674.674,0,0,1,.659.686A.674.674,0,0,1,0,0" fill="#88ffdb"/></g><g transform="translate(3.56 -10.7)"><path d="M0,0A.674.674,0,0,1-.659-.686a.675.675,0,0,1,.686-.66.674.674,0,0,1,.658.687A.672.672,0,0,1,0,0" fill="#88ffdb"/></g><g transform="translate(3.507 -8.011)"><path d="M0,0A.674.674,0,0,1-.66-.686a.674.674,0,0,1,.686-.66.673.673,0,0,1,.659.687A.673.673,0,0,1,0,0" fill="#88ffdb"/></g><g transform="translate(3.454 -5.323)"><path d="M0,0A.672.672,0,0,1-.659-.685a.673.673,0,0,1,.685-.66.674.674,0,0,1,.659.686A.672.672,0,0,1,0,0" fill="#88ffdb"/></g><g transform="translate(3.401 -2.634)"><path d="M0,0A.672.672,0,0,1-.659-.686a.671.671,0,0,1,.686-.658.672.672,0,0,1,.658.685A.673.673,0,0,1,0,0" fill="#88ffdb"/></g><g transform="translate(2.149 -75.289)"><path d="M0,0A.67.67,0,0,1-.659-.686a.669.669,0,0,1,.686-.657.67.67,0,0,1,.657.684A.669.669,0,0,1,0,0" fill="#88ffdb"/></g><g transform="translate(2.097 -72.599)"><path d="M0,0A.674.674,0,0,1-.661-.686a.673.673,0,0,1,.687-.659.672.672,0,0,1,.658.686A.673.673,0,0,1,0,0" fill="#88ffdb"/></g><g transform="translate(2.043 -69.91)"><path d="M0,0A.673.673,0,0,1-.659-.686a.672.672,0,0,1,.685-.659.673.673,0,0,1,.659.686A.673.673,0,0,1,0,0" fill="#88ffdb"/></g><g transform="translate(1.989 -67.222)"><path d="M0,0A.672.672,0,0,1-.659-.686a.672.672,0,0,1,.685-.658.672.672,0,0,1,.659.685A.672.672,0,0,1,0,0" fill="#88ffdb"/></g><g transform="translate(1.936 -64.533)"><path d="M0,0A.67.67,0,0,1-.659-.684a.671.671,0,0,1,.686-.659.671.671,0,0,1,.658.686A.672.672,0,0,1,0,0" fill="#88ffdb"/></g><g transform="translate(1.883 -61.844)"><path d="M0,0A.673.673,0,0,1-.66-.687a.672.672,0,0,1,.686-.657A.673.673,0,0,1,.685-.66.673.673,0,0,1,0,0" fill="#88ffdb"/></g><g transform="translate(1.83 -59.154)"><path d="M0,0A.672.672,0,0,1-.659-.686a.67.67,0,0,1,.685-.659.673.673,0,0,1,.659.686A.674.674,0,0,1,0,0" fill="#88ffdb"/></g><g transform="translate(1.777 -56.466)"><path d="M0,0A.671.671,0,0,1-.659-.686a.672.672,0,0,1,.685-.659.673.673,0,0,1,.658.686A.671.671,0,0,1,0,0" fill="#88ffdb"/></g><g transform="translate(1.724 -53.777)"><path d="M0,0A.672.672,0,0,1-.66-.687a.671.671,0,0,1,.686-.657A.671.671,0,0,1,.684-.66.672.672,0,0,1,0,0" fill="#88ffdb"/></g><g transform="translate(1.67 -51.088)"><path d="M0,0A.675.675,0,0,1-.66-.687a.672.672,0,0,1,.686-.657A.672.672,0,0,1,.685-.66.673.673,0,0,1,0,0" fill="#88ffdb"/></g><g transform="translate(1.617 -48.398)"><path d="M0,0A.673.673,0,0,1-.659-.687a.673.673,0,0,1,.685-.659A.674.674,0,0,1,.685-.66.674.674,0,0,1,0,0" fill="#88ffdb"/></g><g transform="translate(1.564 -45.711)"><path d="M0,0A.671.671,0,0,1-.659-.685a.672.672,0,0,1,.686-.657.672.672,0,0,1,.658.684A.672.672,0,0,1,0,0" fill="#88ffdb"/></g><g transform="translate(1.511 -43.021)"><path d="M0,0A.673.673,0,0,1-.66-.686a.673.673,0,0,1,.686-.659.674.674,0,0,1,.659.686A.673.673,0,0,1,0,0" fill="#88ffdb"/></g><g transform="translate(1.457 -40.333)"><path d="M0,0A.67.67,0,0,1-.659-.686a.671.671,0,0,1,.686-.657.673.673,0,0,1,.658.684A.672.672,0,0,1,0,0" fill="#88ffdb"/></g><g transform="translate(1.404 -37.644)"><path d="M0,0A.671.671,0,0,1-.659-.686a.672.672,0,0,1,.685-.659.672.672,0,0,1,.658.686A.672.672,0,0,1,0,0" fill="#88ffdb"/></g><g transform="translate(1.352 -34.954)"><path d="M0,0A.674.674,0,0,1-.661-.686a.673.673,0,0,1,.687-.659.672.672,0,0,1,.658.686A.672.672,0,0,1,0,0" fill="#88ffdb"/></g><g transform="translate(1.298 -32.267)"><path d="M0,0A.67.67,0,0,1-.66-.684a.672.672,0,0,1,.685-.659.674.674,0,0,1,.659.686A.671.671,0,0,1,0,0" fill="#88ffdb"/></g><g transform="translate(1.244 -29.577)"><path d="M0,0A.672.672,0,0,1-.659-.685a.671.671,0,0,1,.686-.659.672.672,0,0,1,.658.686A.672.672,0,0,1,0,0" fill="#88ffdb"/></g><g transform="translate(1.191 -26.888)"><path d="M0,0A.673.673,0,0,1-.659-.686a.673.673,0,0,1,.686-.659A.671.671,0,0,1,.685-.66.674.674,0,0,1,0,0" fill="#88ffdb"/></g><g transform="translate(1.138 -24.198)"><path d="M0,0A.671.671,0,0,1-.659-.686a.671.671,0,0,1,.685-.659A.673.673,0,0,1,.685-.66.674.674,0,0,1,0,0" fill="#88ffdb"/></g><g transform="translate(1.085 -21.511)"><path d="M0,0A.671.671,0,0,1-.66-.686a.671.671,0,0,1,.687-.657.672.672,0,0,1,.658.684A.672.672,0,0,1,0,0" fill="#88ffdb"/></g><g transform="translate(1.032 -18.821)"><path d="M0,0A.671.671,0,0,1-.659-.685a.672.672,0,0,1,.686-.66.672.672,0,0,1,.657.687A.671.671,0,0,1,0,0" fill="#88ffdb"/></g><g transform="translate(0.979 -16.132)"><path d="M0,0A.673.673,0,0,1-.66-.686a.672.672,0,0,1,.686-.658.672.672,0,0,1,.658.685A.673.673,0,0,1,0,0" fill="#88ffdb"/></g><g transform="translate(0.925 -13.443)"><path d="M0,0A.673.673,0,0,1-.659-.687a.673.673,0,0,1,.686-.659A.672.672,0,0,1,.685-.66.673.673,0,0,1,0,0" fill="#88ffdb"/></g><g transform="translate(0.872 -10.753)"><path d="M0,0A.674.674,0,0,1-.659-.687a.673.673,0,0,1,.686-.659A.673.673,0,0,1,.685-.66.674.674,0,0,1,0,0" fill="#88ffdb"/></g><g transform="translate(0.819 -8.064)"><path d="M0,0A.674.674,0,0,1-.66-.687a.672.672,0,0,1,.686-.659A.672.672,0,0,1,.685-.66.674.674,0,0,1,0,0" fill="#88ffdb"/></g><g transform="translate(0.766 -5.377)"><path d="M0,0A.671.671,0,0,1-.659-.685a.673.673,0,0,1,.685-.66.675.675,0,0,1,.659.686A.673.673,0,0,1,0,0" fill="#88ffdb"/></g><g transform="translate(0.712 -2.688)"><path d="M0,0A.671.671,0,0,1-.659-.686a.669.669,0,0,1,.686-.657A.672.672,0,0,1,.685-.66.674.674,0,0,1,0,0" fill="#88ffdb"/></g><g transform="translate(0.659)"><path d="M0,0A.669.669,0,0,1-.659-.684a.672.672,0,0,1,.686-.66.672.672,0,0,1,.657.687A.669.669,0,0,1,0,0" fill="#88ffdb"/></g></g></svg>
