<svg xmlns="http://www.w3.org/2000/svg" width="41.409" height="41.406" viewBox="0 0 41.409 41.406">
  <g id="Group_174" data-name="Group 174" transform="translate(7.407)">
    <path id="Path_105" data-name="Path 105" d="M-.23-.045a20.664,20.664,0,0,0-6.263,3.6L6.884-1.283A20.683,20.683,0,0,0-.23-.045" transform="translate(6.493 1.283)" fill="#d5068a"/>
  </g>
  <g id="Group_175" data-name="Group 175" transform="translate(3.754 0.239)">
    <path id="Path_106" data-name="Path 106" d="M-.736,0-19.328,6.72A20.5,20.5,0,0,0-20.8,8.585L1.59.493A20.671,20.671,0,0,0-.736,0" transform="translate(20.801)" fill="#d5068a"/>
  </g>
  <g id="Group_176" data-name="Group 176" transform="translate(1.843 1.365)">
    <path id="Path_107" data-name="Path 107" d="M-.962,0-26.376,9.184q-.447.8-.825,1.633L.716.727Q-.106.327-.962,0" transform="translate(27.201)" fill="#d5068a"/>
  </g>
  <g id="Group_177" data-name="Group 177" transform="translate(0.737 2.889)">
    <path id="Path_108" data-name="Path 108" d="M-1.119,0-31.151,10.855q-.265.742-.475,1.5L.207.854Q-.438.4-1.119,0" transform="translate(31.626)" fill="#d5068a"/>
  </g>
  <g id="Group_178" data-name="Group 178" transform="translate(0.164 4.644)">
    <path id="Path_109" data-name="Path 109" d="M-1.233,0-34.607,12.063q-.137.7-.229,1.417L-.15.943Q-.676.453-1.233,0" transform="translate(34.836)" fill="#d5068a"/>
  </g>
  <g id="Group_179" data-name="Group 179" transform="translate(0 6.567)">
    <path id="Path_110" data-name="Path 110" d="M-1.314,0-37.105,12.936c-.027.448-.04.9-.037,1.347L-.425,1.012C-.711.663-1.008.327-1.314,0" transform="translate(37.142)" fill="#d5068a"/>
  </g>
  <g id="Group_180" data-name="Group 180" transform="translate(0.052 8.624)">
    <path id="Path_111" data-name="Path 111" d="M-1.374,0-38.84,13.541c.031.427.074.857.133,1.285L-.655,1.074Q-1,.522-1.374,0" transform="translate(38.84)" fill="#d5068a"/>
  </g>
  <g id="Group_181" data-name="Group 181" transform="translate(0.396 10.799)">
    <path id="Path_112" data-name="Path 112" d="M-1.412,0-39.9,13.909c.081.412.174.823.283,1.232L-.843,1.129C-1.021.744-1.211.368-1.412,0" transform="translate(39.897)" fill="#d5068a"/>
  </g>
  <g id="Group_182" data-name="Group 182" transform="translate(1.034 13.082)">
    <path id="Path_113" data-name="Path 113" d="M-1.427,0-40.341,14.064c.066.2.133.4.2.592s.146.395.223.586L-1,1.179c-.064-.2-.131-.395-.2-.592S-1.351.193-1.427,0" transform="translate(40.341)" fill="#d5068a"/>
  </g>
  <g id="Group_183" data-name="Group 183" transform="translate(1.958 15.467)">
    <path id="Path_114" data-name="Path 114" d="M-.021-.555,38.465-14.464c-.082-.413-.175-.823-.284-1.232L-.59-1.684c.178.385.368.759.569,1.129" transform="translate(0.59 15.696)" fill="#d5068a"/>
  </g>
  <g id="Group_184" data-name="Group 184" transform="translate(3.171 17.956)">
    <path id="Path_115" data-name="Path 115" d="M-.026-.544,37.439-14.085q-.045-.642-.134-1.286L-.746-1.618c.229.368.469.724.72,1.075" transform="translate(0.746 15.371)" fill="#d5068a"/>
  </g>
  <g id="Group_185" data-name="Group 185" transform="translate(4.691 20.558)">
    <path id="Path_116" data-name="Path 116" d="M-.033-.524,35.759-13.459c.027-.448.04-.9.037-1.347L-.922-1.536c.287.349.584.685.889,1.012" transform="translate(0.922 14.806)" fill="#d5068a"/>
  </g>
  <g id="Group_186" data-name="Group 186" transform="translate(6.559 23.283)">
    <path id="Path_117" data-name="Path 117" d="M-.04-.494,33.335-12.556q.139-.7.23-1.416L-1.121-1.436Q-.6-.945-.04-.494" transform="translate(1.121 13.972)" fill="#d5068a"/>
  </g>
  <g id="Group_187" data-name="Group 187" transform="translate(8.837 26.158)">
    <path id="Path_118" data-name="Path 118" d="M-.049-.453,29.986-11.308q.265-.745.475-1.5L-1.376-1.307q.647.45,1.327.854" transform="translate(1.376 12.813)" fill="#d5068a"/>
  </g>
  <g id="Group_188" data-name="Group 188" transform="translate(11.649 29.225)">
    <path id="Path_119" data-name="Path 119" d="M-.062-.4,25.352-9.581q.449-.8.825-1.633L-1.74-1.124q.822.4,1.678.727" transform="translate(1.74 11.214)" fill="#d5068a"/>
  </g>
  <g id="Group_189" data-name="Group 189" transform="translate(15.265 32.583)">
    <path id="Path_120" data-name="Path 120" d="M-.085-.315l18.592-6.72A20.685,20.685,0,0,0,19.981-8.9L-2.41-.809A20.4,20.4,0,0,0-.085-.315" transform="translate(2.41 8.9)" fill="#d5068a"/>
  </g>
  <g id="Group_190" data-name="Group 190" transform="translate(20.624 36.572)">
    <path id="Path_121" data-name="Path 121" d="M-.261-.132A20.643,20.643,0,0,0,6-3.729L-7.377,1.106A20.693,20.693,0,0,0-.261-.132" transform="translate(7.377 3.729)" fill="#d5068a"/>
  </g>
</svg>
