<svg xmlns="http://www.w3.org/2000/svg" width="109.855" height="112.956" viewBox="0 0 109.855 112.956">
  <path id="Path_97" data-name="Path 97" d="M-1.757-.142l-.635,1.211L-9.16-2.474l-7.082,3.708-7.085-3.708-7.081,3.708-7.082-3.708-7.083,3.708-5.09-2.666v-1.54l5.09,2.664,7.083-3.707,7.082,3.707,7.081-3.707,7.085,3.707L-9.16-4.015Z" transform="translate(49.664 4.015)" fill="#8e23aa"/>
  <g id="Group_167" data-name="Group 167" transform="translate(61.948 107.707)">
    <path id="Path_98" data-name="Path 98" d="M-1.757-.142l-.635,1.21L-9.16-2.475l-7.082,3.707-7.085-3.707-7.081,3.707-7.082-3.707-7.083,3.707-5.09-2.665V-2.974l5.09,2.663,7.083-3.705,7.082,3.705,7.081-3.705,7.085,3.705L-9.16-4.016Z" transform="translate(49.664 4.016)" fill="#8e23aa"/>
  </g>
</svg>
