<svg xmlns="http://www.w3.org/2000/svg" xmlns:xlink="http://www.w3.org/1999/xlink" width="64.509" height="64.508" viewBox="0 0 64.509 64.508"><defs><clipPath id="a"><path d="M0-64.508H64.509V0H0Z" fill="none"/></clipPath></defs><g transform="translate(0 64.508)" clip-path="url(#a)"><g transform="translate(61.517 -45.844)"><path d="M0,0-15.672-15.674A32.25,32.25,0,0,1-6.454-9.219,32.259,32.259,0,0,1,0,0" fill="#fff"/></g><g transform="translate(64.033 -37.802)"><path d="M0,0-26.232-26.23a32.39,32.39,0,0,1,3.6.836L-.84-3.6A32.323,32.323,0,0,1,0,0" fill="#fff"/></g><g transform="translate(64.505 -31.797)"><path d="M0,0-32.708-32.706c.949-.018,1.9.011,2.85.081L-.083-2.85C-.014-1.9.015-.949,0,0" fill="#fff"/></g><g transform="translate(64.038 -26.738)"><path d="M0,0-37.3-37.3c.807-.141,1.623-.25,2.438-.326L.326-2.436C.249-1.622.141-.808,0,0" fill="#fff"/></g><g transform="translate(62.943 -22.301)"><path d="M0,0-40.641-40.642q1.066-.345,2.151-.612l39.1,39.1C.435-1.428.229-.711,0,0" fill="#fff"/></g><g transform="translate(20.27 -62.206)"><path d="M0,0,15.792,15.791a14.678,14.678,0,0,0-3.255-.492L-1.922.841Q-.974.382,0,0" fill="#fff"/></g><g transform="translate(61.365 -18.349)"><path d="M0,0-14.459-14.458a14.725,14.725,0,0,0-.49-3.255L.842-1.922C.585-1.271.306-.631,0,0" fill="#fff"/></g><g transform="translate(16.526 -60.425)"><path d="M0,0,13.653,13.653a14.421,14.421,0,0,0-2.256.51L-1.726,1.04Q-.877.488,0,0" fill="#fff"/></g><g transform="translate(59.385 -14.801)"><path d="M0,0-13.121-13.122a14.76,14.76,0,0,0,.507-2.256L1.039-1.724Q.55-.847,0,0" fill="#fff"/></g><g transform="translate(13.164 -58.259)"><path d="M0,0,12.768,12.77a14.2,14.2,0,0,0-1.761,1L-1.547,1.217Q-.79.583,0,0" fill="#fff"/></g><g transform="translate(57.042 -11.616)"><path d="M0,0-12.555-12.555a14.142,14.142,0,0,0,1-1.762L1.217-1.549Q.636-.76,0,0" fill="#fff"/></g><g transform="translate(22.603 -43.288)"><path d="M0,0C-.246.21-.483.432-.716.665s-.455.472-.668.716L-13.835-11.07c.22-.24.447-.473.68-.706s.464-.456.7-.677Z" fill="#fff"/></g><g transform="translate(55.063 -9.448)"><path d="M0,0C-.232.232-.466.458-.7.681L-13.157-11.771c.245-.212.486-.437.717-.669s.454-.47.665-.714L.678-.7Q.344-.343,0,0" fill="#fff"/></g><g transform="translate(20.021 -40.342)"><path d="M0,0A14.7,14.7,0,0,0-1,1.764L-13.768-11q.579-.792,1.215-1.549Z" fill="#fff"/></g><g transform="translate(52.894 -7.468)"><path d="M0,0Q-.757.635-1.548,1.216L-14.317-11.553a14.343,14.343,0,0,0,1.764-1Z" fill="#fff"/></g><g transform="translate(18.244 -36.59)"><path d="M0,0A14.67,14.67,0,0,0-.5,2.259L-14.159-11.394q.489-.879,1.039-1.726Z" fill="#fff"/></g><g transform="translate(49.711 -5.126)"><path d="M0,0Q-.849.552-1.725,1.04L-15.38-12.613a14.941,14.941,0,0,0,2.259-.506Z" fill="#fff"/></g><g transform="translate(17.605 -31.697)"><path d="M0,0A14.774,14.774,0,0,0,.489,3.253L-15.305-12.54c.258-.651.539-1.289.843-1.921Z" fill="#fff"/></g><g transform="translate(46.158 -3.143)"><path d="M0,0Q-.946.456-1.92.842L-17.714-14.952a14.715,14.715,0,0,0,3.253.489Z" fill="#fff"/></g><g transform="translate(42.208 -1.566)"><path d="M0,0C-.71.23-1.43.435-2.149.614L-41.257-38.492c.179-.721.385-1.44.615-2.15Z" fill="#fff"/></g><g transform="translate(37.775 -0.473)"><path d="M0,0C-.809.14-1.622.251-2.438.326L-37.629-34.865c.075-.816.187-1.628.326-2.437Z" fill="#fff"/></g><g transform="translate(32.711 -0.003)"><path d="M0,0C-.947.013-1.9-.013-2.848-.084L-32.625-29.861q-.1-1.425-.082-2.846Z" fill="#fff"/></g><g transform="translate(26.71 -0.476)"><path d="M0,0A32.156,32.156,0,0,1-3.6-.837l-21.8-21.8a32.951,32.951,0,0,1-.836-3.6Z" fill="#fff"/></g><g transform="translate(18.671 -2.987)"><path d="M0,0A32.133,32.133,0,0,1-9.225-6.458a32.176,32.176,0,0,1-6.459-9.226Z" fill="#fff"/></g></g></svg>
