<svg xmlns="http://www.w3.org/2000/svg" width="13.27" height="23.433" viewBox="0 0 13.27 23.433">
  <path id="Path_468" data-name="Path 468" d="M30.276-16.035H19.561V-31.173H30.276ZM24.919-12.3a1.09,1.09,0,0,1-1.088-1.09,1.088,1.088,0,0,1,1.088-1.088,1.088,1.088,0,0,1,1.088,1.088,1.09,1.09,0,0,1-1.088,1.09M22.485-33.016h4.868c.123,0,.223.183.223.411s-.1.411-.223.411H22.485c-.123,0-.221-.184-.221-.411s.1-.411.221-.411m7.364-1.036h-9.86a1.7,1.7,0,0,0-1.7,1.707v20.02a1.7,1.7,0,0,0,1.7,1.706h9.86a1.706,1.706,0,0,0,1.7-1.706v-20.02a1.706,1.706,0,0,0-1.7-1.707" transform="translate(-18.284 34.052)" fill="#221f1f"/>
</svg>
