<svg xmlns="http://www.w3.org/2000/svg" xmlns:xlink="http://www.w3.org/1999/xlink" width="45.073" height="56.13" viewBox="0 0 45.073 56.13">
  <defs>
    <clipPath id="clip-path">
      <path id="Path_151" data-name="Path 151" d="M0-56.13H45.073V0H0Z" fill="none"/>
    </clipPath>
  </defs>
  <g id="Group_213" data-name="Group 213" transform="translate(0 56.13)">
    <path id="Path_125" data-name="Path 125" d="M0,0H45.073V-56.13H0Z" fill="#f5ce00"/>
    <g id="Group_212" data-name="Group 212" clip-path="url(#clip-path)">
      <g id="Group_195" data-name="Group 195" transform="translate(36.005 -46.679)">
        <path id="Path_126" data-name="Path 126" d="M0,0A13.477,13.477,0,0,1-.622,4.06a13.405,13.405,0,0,1-2.1,4.06,13.453,13.453,0,0,1-10.746,5.348A13.453,13.453,0,0,1-24.215,8.12a13.428,13.428,0,0,1-2.1-4.06A13.477,13.477,0,0,1-26.937,0Z" fill="#3c3c5c"/>
      </g>
      <g id="Group_196" data-name="Group 196" transform="translate(9.695 -46.066)">
        <path id="Path_127" data-name="Path 127" d="M0,0A12.861,12.861,0,0,0,.579,3.263a12.748,12.748,0,0,0,2,3.875,12.769,12.769,0,0,0,10.259,5.105A12.77,12.77,0,0,0,23.1,7.138a12.771,12.771,0,0,0,2-3.875A12.905,12.905,0,0,0,25.683,0ZM12.842,13.468A13.979,13.979,0,0,1,1.607,7.877a13.956,13.956,0,0,1-2.2-4.245,14.061,14.061,0,0,1-.65-4.244v-.613H26.922v.613a14.066,14.066,0,0,1-.651,4.244,13.973,13.973,0,0,1-2.194,4.245,13.982,13.982,0,0,1-11.235,5.591" fill="#1d1d1b"/>
      </g>
      <g id="Group_197" data-name="Group 197" transform="translate(36.005 -46.679)">
        <path id="Path_128" data-name="Path 128" d="M0,0A13.477,13.477,0,0,1-.622,4.06H-26.315A13.477,13.477,0,0,1-26.937,0Z" fill="#fff"/>
      </g>
      <g id="Group_198" data-name="Group 198" transform="translate(9.917 -42.925)">
        <path id="Path_129" data-name="Path 129" d="M0,0H25.239a13.163,13.163,0,0,0,.539-3.447H-.538A13.12,13.12,0,0,0,0,0M25.69.612H-.451L-.519.4a13.828,13.828,0,0,1-.635-4.151V-4.06H26.4v.307A13.736,13.736,0,0,1,25.758.4Z" fill="#1d1d1b"/>
      </g>
      <path id="Path_130" data-name="Path 130" d="M14.564-42.619h-.919v-4.06h.919Z" fill="#1d1d1b"/>
      <path id="Path_131" data-name="Path 131" d="M19.633-42.619h-.919v-4.06h.919Z" fill="#1d1d1b"/>
      <path id="Path_132" data-name="Path 132" d="M24.7-42.619h-.918v-4.06H24.7Z" fill="#1d1d1b"/>
      <path id="Path_133" data-name="Path 133" d="M29.769-42.619h-.92v-4.06h.92Z" fill="#1d1d1b"/>
      <g id="Group_199" data-name="Group 199" transform="translate(33.283 -38.559)">
        <path id="Path_134" data-name="Path 134" d="M0,0A13.45,13.45,0,0,1-10.746,5.348,13.449,13.449,0,0,1-21.493,0Z" fill="#fff"/>
      </g>
      <g id="Group_200" data-name="Group 200" transform="translate(12.424 -38.252)">
        <path id="Path_135" data-name="Path 135" d="M0,0A13.062,13.062,0,0,0,10.113,4.735,13.065,13.065,0,0,0,20.226,0ZM10.113,5.348A13.682,13.682,0,0,1-.878-.121l-.373-.492H21.477L21.1-.121A13.682,13.682,0,0,1,10.113,5.348" fill="#1d1d1b"/>
      </g>
      <path id="Path_136" data-name="Path 136" d="M14.566-36.174h-.919v-2.385h.919Z" fill="#1d1d1b"/>
      <path id="Path_137" data-name="Path 137" d="M19.633-33.639h-.919v-4.92h.919Z" fill="#1d1d1b"/>
      <path id="Path_138" data-name="Path 138" d="M24.7-33.318h-.92v-5.241h.92Z" fill="#1d1d1b"/>
      <path id="Path_139" data-name="Path 139" d="M29.77-35.038h-.919v-3.521h.919Z" fill="#1d1d1b"/>
      <g id="Group_201" data-name="Group 201" transform="translate(29.741 -49.759)">
        <path id="Path_140" data-name="Path 140" d="M0,0C-.168-.109-.107-.617.365-1.273a3.435,3.435,0,0,1,1.094-.965A2.9,2.9,0,0,1,3.39-2.565a3.153,3.153,0,0,1,1.672.92A4.336,4.336,0,0,1,5.859-.5c.327.7.37,1.176.194,1.285S5.487.6,4.984.138a4.179,4.179,0,0,0-1.871-1.2,2.916,2.916,0,0,0-2,.568C.562-.15.181.123,0,0" fill="#221f1f"/>
      </g>
      <g id="Group_202" data-name="Group 202" transform="translate(14.381 -49.758)">
        <path id="Path_141" data-name="Path 141" d="M0,0C-.181.123-.562-.15-1.114-.491a2.908,2.908,0,0,0-2-.569A4.2,4.2,0,0,0-4.985.137C-5.488.6-5.87.9-6.053.785S-6.186.2-5.86-.5a4.367,4.367,0,0,1,.8-1.148A3.159,3.159,0,0,1-3.39-2.565a2.887,2.887,0,0,1,1.929.326,3.459,3.459,0,0,1,1.1.966C.107-.617.168-.109,0,0" fill="#221f1f"/>
      </g>
      <g id="Group_203" data-name="Group 203" transform="translate(11.894 -22.79)">
        <path id="Path_142" data-name="Path 142" d="M0,0Q-.031.016-1.913,1.364A11.409,11.409,0,0,1-3.858,2.53a.435.435,0,0,1-.2.049.535.535,0,0,1-.424-.294c-.2-.263-.3-.4-.311-.41q-.033-1.44.18-4.012.245-2.733.245-3.946,0-.835-.066-1.572a.732.732,0,0,1,.54-.213q.621,0,.719.458.049,1.341-.114,4.014T-3.417.617A7.98,7.98,0,0,0-2.224-.069,11.033,11.033,0,0,1-1.062-.805,2.132,2.132,0,0,0-.776-.838a2.248,2.248,0,0,1,.3-.033A.5.5,0,0,1,0-.607.514.514,0,0,1,0,0"/>
      </g>
      <g id="Group_204" data-name="Group 204" transform="translate(15.867 -24.804)">
        <path id="Path_143" data-name="Path 143" d="M0,0A10.461,10.461,0,0,0-.212-1.357q-.164-.654-.311-1.308-.491,1.357-.85,2.714A10.711,10.711,0,0,1,0,0M2.387,3.123a1.335,1.335,0,0,1,.1.457.74.74,0,0,1-.278.572q-.279.246-.376.229Q1.03,4.234.817,3.09A12.512,12.512,0,0,0,.278,1.014l-1.112.1a1.857,1.857,0,0,0-1,.393q-.18.507-.474,1.8a11.794,11.794,0,0,1-.54,1.815q-.13.294-.555.164-.54-.18-.573-.491a4.019,4.019,0,0,1,.36-1.667,7.159,7.159,0,0,0,.54-1.7q.015-.147-.213-.327C-3.438.976-3.515.883-3.515.817A.277.277,0,0,1-3.441.646.629.629,0,0,1-3.1.5c.18-.039.281-.1.3-.172q.294-.817.933-3.041A27.629,27.629,0,0,1-.9-5.673.4.4,0,0,1-.49-5.9a.626.626,0,0,1,.408.147A1.892,1.892,0,0,1,.507-4.578q.1.671.18,1.341a51.9,51.9,0,0,0,1.7,6.36"/>
      </g>
      <g id="Group_205" data-name="Group 205" transform="translate(24.713 -29.807)">
        <path id="Path_144" data-name="Path 144" d="M0,0A19,19,0,0,1-.654,3.057Q-1.39,5.625-1.5,6.164A7.7,7.7,0,0,1-2.878,9.172a1.771,1.771,0,0,1-1.472.85q-.735-.017-1.094-.932a9.592,9.592,0,0,1-.621-3.613A26.581,26.581,0,0,1-5.837,2.4,7.43,7.43,0,0,1-5.854,1.39q0-1.014.786-1.014a.822.822,0,0,1,.351.09c.125.06.248.122.367.188q.016.834-.048,2.452-.083,1.734-.081,2.5c0,.546.015,1.041.048,1.488A9.642,9.642,0,0,0-4.137,8.4,5.4,5.4,0,0,0-3.058,6.36q.131-.426.524-2.322a10.475,10.475,0,0,1,.7-2.256,3.1,3.1,0,0,0,.2-.866,3.3,3.3,0,0,1,.2-.883A.632.632,0,0,1-.817-.36.918.918,0,0,1,0,0"/>
      </g>
      <g id="Group_206" data-name="Group 206" transform="translate(31.104 -24.984)">
        <path id="Path_145" data-name="Path 145" d="M0,0A9.3,9.3,0,0,0-.572,2.7Q-.654,4.087-.719,5.477q-.033.409-.54.409a.786.786,0,0,1-.278-.049,1.086,1.086,0,0,1-.7-1.1,5.42,5.42,0,0,1,.065-.7,5.63,5.63,0,0,0,.066-.678q.064-.474.163-1.422A7.441,7.441,0,0,1-4.5,3.532a1.254,1.254,0,0,1-.393.065,1.773,1.773,0,0,1-1.389-.85,1.889,1.889,0,0,1-.36-1.177A4.68,4.68,0,0,1-6.359.115,18.009,18.009,0,0,1-3.6-5.068q.948-1.259,1.684-1.259.654,0,.736.491a.512.512,0,0,1-.278.588c-.382.207-.583.322-.6.343A16.247,16.247,0,0,0-4.577-.981a6.348,6.348,0,0,0-.7,2.665c0,.142.005.284.015.425.023.011.055.063.1.156s.1.122.18.089A14.333,14.333,0,0,0-1.732.115a1.927,1.927,0,0,0,.376-.753A.6.6,0,0,1-.769-1.1c-.086,0,0-.011.262-.033.131-.022.218,0,.262.066a1.459,1.459,0,0,1,.31.751A.826.826,0,0,1,0,0"/>
      </g>
      <g id="Group_207" data-name="Group 207" transform="translate(37.791 -30.036)">
        <path id="Path_146" data-name="Path 146" d="M0,0A44.408,44.408,0,0,1-.474,4.61,36.537,36.537,0,0,0-.883,9.2c0,.337.011.659.033.964a.327.327,0,0,1-.1.221.307.307,0,0,1-.229.106,1.46,1.46,0,0,1-.6-.081A1.434,1.434,0,0,1-2.4,9.058c0-.131.007-.336.024-.614s.025-.482.025-.613a8.98,8.98,0,0,1,.082-1A9.3,9.3,0,0,0-2.19,5.8a2.48,2.48,0,0,1-.63-.065,3.253,3.253,0,0,0-.58-.082,1.308,1.308,0,0,0-.41.065,15.331,15.331,0,0,0-.457,3.81,1.215,1.215,0,0,1-1.079-.05A.8.8,0,0,1-5.722,8.7,3.214,3.214,0,0,1-5.7,8.346c.015-.147.024-.237.024-.269q.048-.883.376-3.5A26.581,26.581,0,0,0-5.035,1.1c0-.119.084-.2.253-.228S-4.518.8-4.5.769a.937.937,0,0,0,.475.2.435.435,0,0,1,.375.294,3,3,0,0,1,.131.915,9.551,9.551,0,0,1-.106,1.137A9.477,9.477,0,0,0-3.728,4.5a.984.984,0,0,0,.491.18,2.794,2.794,0,0,0,.555.016c.317-.022.507-.032.573-.032A38.9,38.9,0,0,0-1.39.212c.044-.381.18-.572.41-.572Q-.114-.441,0,0"/>
      </g>
      <g id="Group_208" data-name="Group 208" transform="translate(12.368 -16.126)">
        <path id="Path_147" data-name="Path 147" d="M0,0Q.033.474.033.981q0,1.111-.229,3.352T-.425,7.717q0,.424.017.833a.589.589,0,0,1-.638.442q-.7-.033-.768-.6a10.579,10.579,0,0,1-.066-1.21,29.929,29.929,0,0,1,.27-3.319,30.065,30.065,0,0,0,.269-3.3c0-.284-.011-.561-.032-.834A.576.576,0,0,1-.817-.589,1.229,1.229,0,0,1-.2-.409.205.205,0,0,1-.1-.458c.033,0,.049.055.049.164a.7.7,0,0,0,0,.229A.11.11,0,0,0,0,0"/>
      </g>
      <g id="Group_209" data-name="Group 209" transform="translate(21.523 -18.039)">
        <path id="Path_148" data-name="Path 148" d="M0,0C-.1.393-.283.621-.556.687q-1.062.261-3.694.687-.328,4.069-.327,6.784,0,1.031.032,2.028a1.5,1.5,0,0,1-.032.474A.3.3,0,0,1-4.9,10.9a1.016,1.016,0,0,1-.785-.4,1.5,1.5,0,0,1-.343-.858c-.023-.4-.033-.828-.033-1.275q0-1.08.147-3.417.149-2.24.131-3.417a5.932,5.932,0,0,0-1.227.082,10.348,10.348,0,0,1-1.242.131,1.956,1.956,0,0,1-1.307-.429q-.2-.429-.2-.445A.393.393,0,0,1-9.646.628,11.19,11.19,0,0,1-7.5.3,5.96,5.96,0,0,0-5.378-.229a4.015,4.015,0,0,0,1.308.2A5.4,5.4,0,0,0-2.664-.212a8.654,8.654,0,0,0,1-.229,2.752,2.752,0,0,1,.98-.1q.3,0,.246.246C-.146-.294,0-.2,0,0"/>
      </g>
      <g id="Group_210" data-name="Group 210" transform="translate(29.306 -16.764)">
        <path id="Path_149" data-name="Path 149" d="M0,0A19,19,0,0,1-.654,3.057Q-1.39,5.625-1.5,6.164A7.7,7.7,0,0,1-2.878,9.172a1.771,1.771,0,0,1-1.472.85q-.735-.017-1.094-.932a9.592,9.592,0,0,1-.621-3.613A26.581,26.581,0,0,1-5.837,2.4,7.43,7.43,0,0,1-5.854,1.39q0-1.014.786-1.014a.822.822,0,0,1,.351.09c.125.06.248.122.367.188q.016.834-.048,2.452-.083,1.734-.081,2.5c0,.546.015,1.041.048,1.488A9.642,9.642,0,0,0-4.137,8.4,5.4,5.4,0,0,0-3.058,6.36q.131-.426.524-2.322a10.475,10.475,0,0,1,.7-2.256,3.1,3.1,0,0,0,.2-.866,3.3,3.3,0,0,1,.2-.883A.632.632,0,0,1-.817-.36.918.918,0,0,1,0,0"/>
      </g>
      <g id="Group_211" data-name="Group 211" transform="translate(33.376 -14.769)">
        <path id="Path_150" data-name="Path 150" d="M0,0A.989.989,0,0,0-.556-1.03q-.033,0-1.177-.474.18,3.007.114,4.218A4.652,4.652,0,0,0,0,0M1.062,1.259A6.783,6.783,0,0,1,0,3.041l-.752.752A2.111,2.111,0,0,1-1.7,4.25a3.942,3.942,0,0,0-.066.769c0,.207.017.521.049.94s.049.728.049.924A2.355,2.355,0,0,1-2.19,8.55l-.458-.245a.514.514,0,0,1-.311-.36,15.654,15.654,0,0,1-.164-2.37q0-.865.1-2.583t.1-2.6a17.14,17.14,0,0,0-.147-2.338c-.087.033-.169-.021-.245-.163s-.142-.224-.2-.245q.083-.523.279-.523a2.686,2.686,0,0,1,1.013.032A4.632,4.632,0,0,1,.98-.981,1.886,1.886,0,0,1,1.324.131a2.787,2.787,0,0,1-.262,1.128"/>
      </g>
    </g>
  </g>
</svg>
