<svg xmlns="http://www.w3.org/2000/svg" xmlns:xlink="http://www.w3.org/1999/xlink" width="50.753" height="50.98" viewBox="0 0 50.753 50.98"><defs><linearGradient id="a" x1="0.5" y1="1" x2="0.5" gradientUnits="objectBoundingBox"><stop offset="0" stop-color="#28b04b"/><stop offset="1" stop-color="#71c169"/></linearGradient><linearGradient id="b" x1="0.5" y1="1" x2="0.5" gradientUnits="objectBoundingBox"><stop offset="0" stop-color="#f9f9fa"/><stop offset="1" stop-color="#fff"/></linearGradient></defs><g transform="translate(0 0)"><path d="M61.91,97.792l3.461-12.638a24.4,24.4,0,1,1,21.14,12.214H86.5A24.387,24.387,0,0,1,74.844,94.4Z" transform="translate(-61.031 -47.693)" fill="url(#a)"/><path d="M59.857,97.493,63.442,84.4a25.273,25.273,0,1,1,21.9,12.652h-.009A25.255,25.255,0,0,1,73.253,93.98Zm14.017-8.086.767.455a20.978,20.978,0,0,0,10.69,2.926h.008a21,21,0,1,0-17.792-9.84l.5.794-2.122,7.748Z" transform="translate(-59.857 -46.513)" fill="url(#b)"/><path d="M95.92,79.381c-.473-1.052-.972-1.073-1.421-1.091-.368-.016-.79-.015-1.211-.015a2.318,2.318,0,0,0-1.683.79,7.075,7.075,0,0,0-2.21,5.265c0,3.107,2.262,6.109,2.579,6.531s4.368,7,10.785,9.53c5.334,2.1,6.419,1.685,7.578,1.58s3.736-1.527,4.261-3a5.256,5.256,0,0,0,.369-3c-.157-.263-.579-.421-1.209-.737s-3.737-1.843-4.316-2.054-1-.315-1.42.316-1.63,2.053-2,2.474-.737.475-1.368.159a17.272,17.272,0,0,1-5.079-3.133,19,19,0,0,1-3.512-4.373c-.369-.632-.039-.974.277-1.288.284-.283.632-.737.947-1.106a4.337,4.337,0,0,0,.632-1.052,1.166,1.166,0,0,0-.053-1.106C97.708,83.752,96.48,80.629,95.92,79.381Z" transform="translate(-76.752 -64.681)" fill="#fff" fill-rule="evenodd"/></g></svg>
